<?xml version="1.0" standalone="no"?>
<!DOCTYPE svg PUBLIC "-//W3C//DTD SVG 20010904//EN"
 "http://www.w3.org/TR/2001/REC-SVG-20010904/DTD/svg10.dtd">
<svg version="1.0" xmlns="http://www.w3.org/2000/svg"
 width="700.000000pt" height="700.000000pt" viewBox="0 0 700.000000 700.000000"
 preserveAspectRatio="xMidYMid meet">
<metadata>
Created by potrace 1.14, written by Peter Selinger 2001-2017
</metadata>
<g transform="translate(0.000000,700.000000) scale(0.100000,-0.100000)"
fill="#000000" stroke="none">
<path d="M3158 6165 c-2 -2 -34 -5 -73 -9 -137 -13 -319 -66 -410 -119 -156
-91 -344 -299 -479 -531 -64 -109 -226 -433 -283 -567 -36 -84 -96 -259 -107
-315 -3 -10 -13 -57 -24 -104 -18 -76 -24 -111 -37 -200 -22 -149 -22 -426 0
-582 3 -24 8 -61 11 -83 11 -76 55 -298 79 -395 2 -8 13 -53 25 -100 11 -47
23 -95 26 -108 2 -12 19 -64 38 -115 160 -442 410 -659 821 -713 17 -2 46 -6
65 -8 149 -22 410 -26 512 -9 253 44 471 150 717 351 123 101 192 154 196 150
2 -2 6 -93 10 -203 3 -110 8 -247 10 -305 2 -58 7 -184 10 -280 6 -179 12
-294 19 -410 3 -36 8 -108 11 -160 3 -52 8 -111 10 -130 2 -19 7 -69 11 -110
3 -41 8 -78 10 -82 2 -3 -12 -19 -32 -35 -59 -47 -51 -129 14 -150 27 -9 477
-8 723 0 132 5 161 13 181 50 9 16 12 192 15 692 1 369 5 753 7 855 2 102 7
446 10 765 4 319 9 735 12 925 12 636 13 1824 2 1837 -6 7 -8 25 -5 40 7 40
-17 91 -50 104 -32 14 -351 18 -488 7 -134 -11 -245 -28 -290 -45 -22 -8 -55
-14 -73 -14 -66 3 -94 -32 -98 -119 -5 -121 -8 -150 -15 -150 -4 0 -19 16 -34
36 -45 58 -155 143 -240 183 -123 59 -319 118 -455 136 -25 3 -58 9 -75 11
-30 6 -272 13 -277 9z m567 -1080 c150 -30 318 -91 420 -152 l50 -30 -2 -94
c-6 -275 -5 -703 1 -919 13 -430 13 -510 2 -524 -33 -41 -212 -140 -326 -181
-145 -51 -244 -69 -390 -68 -204 1 -441 89 -542 200 -39 44 -154 265 -183 351
-37 115 -43 163 -40 321 4 187 10 242 35 341 60 237 200 457 383 601 58 46
148 100 197 118 19 8 58 22 85 32 42 16 70 18 165 14 63 -2 129 -7 145 -10z"/>
</g>
</svg>
