<?xml version="1.0" encoding="UTF-8" standalone="no"?>
<!-- Created with Inkscape (http://www.inkscape.org/) -->

<svg
   width="62.335175mm"
   height="18.814991mm"
   viewBox="0 0 62.335176 18.814991"
   version="1.1"
   id="svg235182"
   xmlns="http://www.w3.org/2000/svg"
   xmlns:svg="http://www.w3.org/2000/svg">
  <defs
     id="defs235179" />
  <g
     id="queers-against-capitalism"
     transform="translate(-23.757444)">
    <g
       id="queers"
       transform="matrix(0.35277777,0,0,0.35277777,-41.047998,-91.033393)">
      <path
         d="m 192.16,268.508 c -0.004,-0.02 -0.008,-0.043 -0.012,-0.063 -0.707,-0.449 -1.582,-0.703 -2.414,-0.679 -1.5,0.316 -2.543,1.816 -2.636,3.296 -0.075,1.008 -0.039,1.465 0.472,2.344 0.25,0.762 1.032,0.965 1.735,1.129 0.996,0.141 2.07,-0.23 2.875,-0.844 -0.02,-0.894 -0.012,-1.793 -0.063,-2.687 -0.023,-0.828 0.004,-1.664 0.043,-2.496 z m 3.652,-1.613 c 0.024,1.925 -0.058,3.851 -0.066,5.781 0.016,2.609 -0.101,5.219 -0.078,7.832 0,0.504 0,1.004 0,1.508 0,0.164 -0.137,0.3 -0.301,0.3 -0.015,0 -0.031,-0.004 -0.047,-0.004 -0.027,0.008 -0.058,0.016 -0.093,0.016 -0.442,0.012 -0.883,0.02 -1.329,0.02 -0.296,0 -0.597,-0.004 -0.898,0 -0.051,0.015 -0.105,0.015 -0.156,0.004 -0.047,0.003 -0.098,0.003 -0.145,0.003 -0.183,0.043 -0.363,-0.105 -0.359,-0.293 -0.004,-0.152 0.109,-0.265 0.25,-0.296 -0.211,-1.934 -0.223,-3.899 -0.301,-5.84 -0.125,0.101 -0.254,0.199 -0.387,0.293 -1.121,0.988 -2.257,1.621 -3.8,1.472 -0.973,-0.05 -2.02,-0.171 -2.747,-0.894 -0.953,-0.906 -1.183,-2.289 -1.457,-3.52 -0.191,-0.957 -0.265,-1.941 -0.125,-2.91 0.133,-0.922 0.418,-1.82 0.844,-2.652 0.293,-0.574 0.555,-1.176 0.918,-1.707 0.43,-0.613 0.93,-1.235 1.621,-1.555 1.282,-0.523 2.782,-0.383 4.043,0.129 0.442,0.176 0.832,0.488 1.117,0.875 0.016,-0.223 0.028,-0.449 0.032,-0.672 0,-0.164 0.132,-0.301 0.297,-0.301 0.043,0 0.082,0.008 0.117,0.024 0.187,-0.121 0.527,-0.145 0.722,-0.172 0.672,-0.082 1.356,-0.113 2.028,-0.047 0.164,0.016 0.281,0.18 0.258,0.336 -0.004,0.043 -0.02,0.082 -0.036,0.113 0.09,0.082 0.133,0.223 0.071,0.344 0.004,0.606 0.007,1.207 0.007,1.813 z"
         style="fill:#000000;fill-opacity:0.988406;fill-rule:nonzero;stroke:none"
         id="q-ltr-1" />
      <path
         d="m 209.785,271.453 c 0.082,0.824 0.117,1.649 0.008,2.473 -0.031,1.015 -0.148,2.023 -0.156,3.039 -0.004,0.082 -0.032,0.148 -0.078,0.195 0.293,0.063 0.324,0.535 -0.024,0.594 -0.82,0.187 -1.656,0.055 -2.488,0.066 -0.051,-0.004 -0.106,0.004 -0.16,0.012 0.004,0.023 0.004,0.043 0.004,0.066 -0.004,0.391 -0.586,0.395 -0.598,0 -0.012,-0.445 -0.02,-0.894 -0.027,-1.339 -0.371,0.379 -0.782,0.722 -1.211,1.019 -0.571,0.313 -1.192,0.563 -1.832,0.684 -0.532,0.035 -1.059,0.144 -1.59,0.152 -0.598,-0.023 -1.156,-0.328 -1.606,-0.703 -0.859,-0.836 -0.953,-2.098 -1.105,-3.219 -0.121,-1.347 -0.227,-2.699 -0.215,-4.054 -0.012,-0.645 -0.07,-1.286 -0.047,-1.93 0.059,-0.906 0.117,-1.813 0.106,-2.723 0,-0.293 0,-0.59 0.015,-0.883 0.008,-0.136 0.004,-0.312 0.063,-0.445 0,-0.008 0,-0.016 0,-0.027 -0.004,-0.106 0.051,-0.215 0.144,-0.27 0.215,-0.098 0.422,0.031 0.637,0.024 0.77,0.043 1.535,0.011 2.301,-0.071 0.16,-0.015 0.316,0.09 0.336,0.258 0.023,0.156 -0.094,0.32 -0.254,0.336 -0.028,0.004 -0.055,0.008 -0.078,0.008 0,1.195 0,2.394 -0.008,3.59 -0.059,1.304 -0.051,2.609 0.172,3.902 0.195,0.809 0.386,1.844 1.234,2.207 0.488,0.148 1.004,0.27 1.512,0.16 1.484,-0.285 1.715,-3.472 1.758,-4.707 0.093,-1.484 0.097,-2.976 -0.016,-4.457 -0.012,-0.215 -0.016,-0.426 -0.023,-0.64 -0.161,-0.106 -0.188,-0.372 -0.016,-0.489 0.242,-0.136 0.551,-0.078 0.82,-0.101 0.75,-0.008 1.504,-0.004 2.258,-0.008 0.16,0 0.297,0.137 0.297,0.301 0,0.136 -0.09,0.25 -0.215,0.289 -0.105,1.308 -0.07,2.633 0,3.945 0.055,0.914 0.027,1.832 0.082,2.746 z"
         style="fill:#000000;fill-opacity:0.988406;fill-rule:nonzero;stroke:none"
         id="q-ltr-2" />
      <path
         d="m 220.809,269.191 c 0.027,-0.398 -0.09,-0.812 -0.282,-1.16 -0.519,-0.633 -1.074,-1.066 -1.925,-1.078 -0.672,-0.047 -1.457,-0.055 -1.911,0.531 -0.441,0.571 -0.804,1.246 -0.933,1.961 0.91,-0.093 1.82,-0.129 2.73,-0.05 0.77,0.031 1.535,0.007 2.305,-0.008 0.008,-0.067 0.012,-0.133 0.016,-0.196 z m 3.269,0.161 c 0.067,0.347 0.16,0.683 0.156,1.039 -0.019,0.382 -0.011,1.261 -0.488,1.324 -0.109,0.074 -0.262,0.09 -0.371,-0.008 -0.734,-0.012 -1.465,0.004 -2.195,-0.023 -0.657,-0.055 -1.313,-0.09 -1.969,-0.11 -0.395,-0.031 -0.762,-0.058 -1.152,-0.043 -0.747,0.039 -1.485,0.211 -2.231,0.254 0.176,0.692 0.387,1.375 0.707,2.012 0.32,0.551 0.953,0.863 1.524,1.098 1.109,0.406 2.394,0.218 3.418,-0.325 0.207,-0.097 0.406,-0.222 0.558,-0.402 0.067,-0.082 0.141,-0.188 0.231,-0.262 0.011,-0.187 0.203,-0.367 0.414,-0.269 0.472,0.285 0.449,0.953 0.781,1.355 0.043,0.059 0.062,0.121 0.066,0.176 0.161,0.16 0.293,0.418 0.254,0.57 0,0.012 -0.004,0.024 -0.008,0.035 0.118,0.254 -0.226,0.575 -0.386,0.77 -0.641,0.707 -1.606,0.906 -2.465,1.203 -0.582,0.246 -1.215,0.313 -1.844,0.301 -1.531,-0.113 -3.055,-0.699 -4.269,-1.645 -0.403,-0.332 -0.735,-0.754 -1.051,-1.16 -0.231,-0.398 -0.449,-0.804 -0.637,-1.226 -0.109,-0.293 -0.226,-0.586 -0.336,-0.879 -0.14,-0.399 -0.14,-0.825 -0.164,-1.242 -0.023,-0.321 -0.078,-0.633 -0.09,-0.954 0.024,-0.472 0.102,-0.945 0.121,-1.421 0.039,-0.524 0.231,-1.016 0.422,-1.5 0.227,-0.922 0.692,-1.79 1.399,-2.438 0.726,-0.633 1.652,-0.996 2.539,-1.352 1.383,-0.492 2.875,-0.117 4.172,0.45 0.394,0.175 0.668,0.523 0.976,0.804 0.266,0.313 0.469,0.672 0.715,1 0.324,0.528 0.727,1.008 0.867,1.625 0.16,0.403 0.266,0.817 0.336,1.243 z"
         style="fill:#000000;fill-opacity:0.988406;fill-rule:nonzero;stroke:none"
         id="q-ltr-3" />
      <path
         d="m 231.754,269.211 c 0.976,-0.047 1.887,0.148 2.84,0.141 -0.004,-0.125 0.015,-0.258 0.023,-0.364 -0.008,-0.215 -0.023,-0.429 -0.051,-0.644 -0.203,-0.574 -0.578,-1.098 -1.148,-1.348 -0.504,-0.226 -1.094,-0.328 -1.641,-0.269 -1.121,0.289 -1.629,1.476 -1.906,2.496 -0.012,0.027 -0.019,0.058 -0.023,0.086 0.64,-0.028 1.257,-0.086 1.906,-0.098 z m 6.23,1.867 c 0.02,0.238 0.024,0.559 -0.296,0.57 -0.106,-0.007 -0.176,-0.043 -0.219,-0.097 -0.028,0 -0.051,0 -0.074,0 -0.266,0.031 -0.532,0.058 -0.801,0.047 -1.297,-0.02 -2.602,-0.055 -3.899,0.011 -0.968,0.121 -1.933,0.262 -2.91,0.246 -0.008,0 -0.015,-0.003 -0.023,-0.003 0,0.089 -0.004,0.183 0.004,0.273 0.015,0.25 0.082,0.496 0.136,0.746 0.125,0.781 0.715,1.453 1.426,1.77 0.602,0.277 1.289,0.246 1.938,0.297 0.781,0.097 1.32,-0.153 1.953,-0.583 0.156,-0.113 0.312,-0.23 0.445,-0.375 0.109,-0.121 0.313,-0.113 0.426,0 0.004,0.004 0.012,0.012 0.015,0.02 -0.023,-0.18 0.04,-0.336 0.29,-0.363 0.156,0 0.289,0.125 0.3,0.277 0.27,0.441 0.356,0.965 0.617,1.406 0.028,0.051 0.043,0.102 0.043,0.149 0.196,0.015 0.375,0.222 0.247,0.449 -0.211,0.43 -0.598,0.715 -0.977,0.988 -0.176,0.137 -0.359,0.262 -0.57,0.336 -1.387,0.531 -2.891,0.446 -4.344,0.496 -0.609,0 -1.246,-0.023 -1.809,-0.277 -0.441,-0.211 -0.949,-0.441 -1.297,-0.766 -0.546,-0.527 -0.929,-1.207 -1.281,-1.871 -0.136,-0.273 -0.23,-0.566 -0.293,-0.863 -0.121,-0.449 -0.238,-0.891 -0.301,-1.352 -0.421,-1.39 -0.085,-2.82 0.098,-4.218 0.07,-0.305 0.227,-0.579 0.379,-0.848 0.43,-0.844 1.012,-1.629 1.781,-2.188 0.516,-0.359 1.102,-0.597 1.676,-0.835 0.867,-0.387 1.84,-0.61 2.789,-0.485 0.402,0.078 0.742,0.235 1.098,0.352 0.746,0.238 1.461,0.66 1.961,1.273 0.488,0.699 0.66,1.547 0.941,2.34 0.18,0.672 0.246,1.371 0.414,2.047 0.063,0.34 0.094,0.687 0.117,1.031 z"
         style="fill:#000000;fill-opacity:0.988406;fill-rule:nonzero;stroke:none"
         id="q-ltr-4" />
      <path
         d="m 249.871,264.457 c 0.07,0.074 0.106,0.191 0.074,0.293 -0.113,0.34 -0.254,0.676 -0.379,1.012 -0.218,0.574 -0.421,1.152 -0.609,1.738 -0.047,0.156 -0.211,0.254 -0.367,0.207 -0.067,-0.019 -0.129,-0.062 -0.168,-0.121 0,0.047 -0.012,0.094 -0.039,0.141 -0.153,0.242 -0.418,0.132 -0.594,-0.012 -0.281,-0.024 -0.578,0.027 -0.859,0.027 -0.832,0.125 -1.539,0.754 -1.852,1.524 -0.183,0.543 -0.203,1.117 -0.316,1.675 -0.094,0.629 -0.063,1.27 -0.153,1.903 -0.043,0.918 -0.007,1.84 -0.011,2.758 -0.016,0.453 -0.082,0.902 -0.075,1.359 0.082,0.043 0.145,0.125 0.157,0.223 0.011,0.136 -0.039,0.222 -0.118,0.277 -0.082,0.168 -0.335,0.234 -0.484,0.094 -0.082,0.004 -0.156,0.004 -0.219,0.011 -0.488,-0.004 -0.972,-0.062 -1.461,-0.027 -0.187,0.02 -0.375,0.039 -0.558,0.098 -0.168,0.086 -0.371,0.133 -0.496,-0.028 -0.012,0 -0.024,0 -0.032,0 -0.218,-0.031 -0.289,-0.25 -0.25,-0.441 -0.015,-1.227 0.071,-2.453 0.059,-3.684 -0.016,-0.629 0.012,-1.261 0.043,-1.89 0.012,-2.27 -0.105,-4.543 -0.129,-6.813 0.004,-0.117 0.059,-0.203 0.133,-0.25 0.008,-0.14 0.105,-0.281 0.297,-0.285 1.012,-0.043 2.074,-0.07 3.066,0.024 0.356,0.054 0.321,0.542 0.012,0.589 -0.02,0.457 -0.027,0.911 -0.031,1.368 0.554,-1.036 1.644,-1.758 2.769,-2.036 0.567,-0.117 1.141,-0.015 1.707,0.071 0.172,0.027 0.403,0.031 0.555,0.133 0.109,-0.047 0.242,-0.02 0.328,0.062 z"
         style="fill:#000000;fill-opacity:0.988406;fill-rule:nonzero;stroke:none"
         id="q-ltr-5" />
      <path
         d="m 261.062,265.355 c 0.012,0.2 -0.183,0.25 -0.289,0.379 -0.367,0.43 -0.64,0.946 -0.738,1.508 -0.027,0.168 -0.043,0.371 -0.156,0.469 0,0.004 0,0.004 0,0.004 -0.067,0.066 -0.16,0.105 -0.254,0.09 -0.199,-0.028 -0.262,-0.219 -0.375,-0.344 -0.527,-0.5 -1.32,-0.645 -2.023,-0.543 -0.497,0.156 -1.028,0.363 -1.383,0.762 -0.426,0.461 -0.551,0.89 -0.125,1.402 0.422,0.625 1.187,0.813 1.847,1.063 0.375,0.25 0.84,0.285 1.235,0.5 0.554,0.226 1.082,0.55 1.5,0.98 0.129,0.18 0.207,0.387 0.258,0.598 0.152,0.285 0.253,0.609 0.312,0.925 0.121,0.446 0.031,0.907 -0.144,1.325 -0.016,0.054 -0.032,0.109 -0.047,0.164 -0.051,0.281 -0.129,0.554 -0.254,0.816 -0.176,0.485 -0.414,0.949 -0.824,1.277 -0.176,0.137 -0.372,0.254 -0.575,0.352 -0.16,0.145 -0.332,0.273 -0.519,0.383 -0.625,0.332 -1.367,0.316 -2.063,0.324 -0.113,-0.004 -0.195,-0.055 -0.242,-0.129 -0.496,0.082 -0.992,0.188 -1.496,0.145 -0.687,-0.086 -1.391,-0.059 -2.07,-0.211 -0.383,-0.086 -0.711,-0.324 -1.047,-0.512 -0.02,-0.012 -0.035,-0.023 -0.051,-0.035 -0.082,0.058 -0.191,0.074 -0.289,0.031 -0.152,-0.062 -0.223,-0.242 -0.16,-0.39 0.199,-0.469 0.41,-0.934 0.582,-1.415 0.094,-0.285 0.176,-0.574 0.254,-0.867 -0.02,-0.156 0.097,-0.304 0.25,-0.328 0.133,-0.039 0.277,0.039 0.336,0.16 0.086,-0.074 0.211,-0.101 0.312,-0.05 0.524,0.253 1.055,0.542 1.645,0.597 0.914,-0.027 1.886,-0.406 2.34,-1.23 0.347,-0.672 -0.133,-0.961 -0.661,-1.258 -0.296,-0.133 -0.632,-0.125 -0.949,-0.207 -0.383,-0.094 -0.758,-0.203 -1.152,-0.242 -0.699,-0.098 -1.371,-0.5 -1.762,-1.094 -0.328,-0.574 -0.531,-1.238 -0.519,-1.902 0.046,-0.469 0.097,-0.946 0.207,-1.403 0.086,-0.297 0.234,-0.574 0.363,-0.855 0.184,-0.379 0.352,-0.785 0.676,-1.074 1.261,-1.067 2.953,-1.5 4.582,-1.344 0.832,0.051 1.668,0.172 2.437,0.508 0.332,0.125 0.461,0.308 0.469,0.472 0.219,-0.16 0.523,-0.148 0.562,0.199 z"
         style="fill:#000000;fill-opacity:0.988406;fill-rule:nonzero;stroke:none"
         id="q-ltr-6" />
    </g>
    <g
       id="against"
       transform="matrix(0.35277777,0,0,0.35277777,-40.518553,-91.228653)">
      <path
         d="m 278.848,269.57 c 0.004,-0.152 0.004,-0.3 0.004,-0.453 -0.11,-0.008 -0.215,-0.074 -0.258,-0.215 -0.289,-0.867 -1.699,-1.414 -2.555,-1.379 -0.457,0.032 -0.828,0.34 -1.117,0.668 -0.242,0.262 -0.496,0.524 -0.66,0.844 -0.176,0.434 -0.403,0.852 -0.516,1.309 -0.055,0.613 -0.101,1.23 0.008,1.836 0.098,0.48 0.125,1.008 0.355,1.445 0.34,0.477 0.801,0.891 1.332,1.141 0.653,0.175 1.348,0.113 1.989,-0.036 0.496,-0.195 0.902,-0.562 1.285,-0.921 0.047,-0.047 0.09,-0.098 0.133,-0.153 -0.043,-0.047 -0.071,-0.113 -0.075,-0.199 0.008,-1.297 0.082,-2.59 0.075,-3.887 z m 4.578,6.063 c 0.258,0.094 0.258,0.375 0.113,0.515 -0.059,0.262 -0.191,0.551 -0.219,0.723 -0.078,0.25 -0.144,0.496 -0.203,0.75 0,0.012 0,0.027 0,0.043 0,0.055 -0.015,0.113 -0.047,0.16 -0.004,0.012 -0.004,0.02 -0.008,0.031 -0.035,0.161 -0.218,0.25 -0.367,0.211 -0.074,-0.019 -0.129,-0.062 -0.168,-0.121 -0.246,-0.023 -0.492,-0.07 -0.73,-0.136 -0.375,-0.067 -0.75,-0.172 -1.016,-0.461 -0.23,-0.2 -0.504,-0.336 -0.722,-0.547 -0.196,-0.199 -0.371,-0.426 -0.5,-0.672 -0.121,0.168 -0.25,0.336 -0.391,0.488 -0.523,0.547 -1.211,0.891 -1.859,1.27 -0.77,0.476 -1.598,0.863 -2.528,0.699 -0.465,-0.027 -0.922,-0.07 -1.355,-0.246 -0.821,-0.356 -1.559,-0.981 -2.067,-1.695 -0.316,-0.54 -0.582,-1.118 -0.8,-1.704 -0.149,-0.617 -0.305,-1.238 -0.352,-1.875 -0.086,-0.543 -0.035,-1.136 -0.082,-1.671 -0.105,-0.946 -0.039,-1.891 0.109,-2.829 0.098,-0.461 0.278,-0.902 0.43,-1.347 0.18,-0.449 0.516,-0.809 0.824,-1.172 0.625,-0.723 1.379,-1.399 2.305,-1.692 1.184,-0.253 3.156,-0.187 4.086,0.661 0.289,0.304 0.59,0.601 0.879,0.906 0.012,0.012 0.023,0.019 0.035,0.031 0.004,-0.082 0.012,-0.16 0.019,-0.242 0.012,-0.238 0.036,-0.477 0.055,-0.715 -0.265,-0.023 -0.414,-0.41 -0.168,-0.594 0.121,-0.047 0.25,-0.074 0.383,-0.086 0.016,-0.007 0.035,-0.011 0.059,-0.015 0.039,-0.004 0.074,-0.004 0.105,0.004 0.305,-0.004 0.621,0.039 0.91,0.027 0.571,0.027 1.137,0.074 1.692,0.113 0.257,0.008 0.644,-0.004 0.648,0.348 0,0.172 -0.148,0.336 -0.324,0.332 0.004,0.098 -0.004,0.199 -0.004,0.281 0,0.457 0,0.91 0,1.367 0.008,0.633 -0.008,1.262 -0.027,1.895 0.004,0.773 0.031,1.551 -0.039,2.324 0,1.582 -0.317,3.746 1.324,4.641 z"
         style="fill:#000000;fill-opacity:0.988406;fill-rule:nonzero;stroke:none"
         id="ag-ltr-1" />
      <path
         d="m 294.164,272.434 c -0.066,-0.547 -0.141,-1.09 -0.176,-1.637 -0.054,-0.645 -0.062,-1.293 -0.05,-1.938 -0.129,-0.011 -0.258,-0.109 -0.278,-0.3 0.008,-0.067 -0.015,-0.129 -0.055,-0.184 -0.128,-0.184 -0.25,-0.371 -0.421,-0.523 -0.575,-0.543 -1.446,-0.586 -2.2,-0.586 -0.621,0.019 -1.097,0.492 -1.468,0.945 -0.161,0.305 -0.246,0.644 -0.411,0.953 -0.183,0.438 -0.441,0.863 -0.468,1.348 -0.004,0.324 -0.063,0.656 -0.02,0.984 0.133,0.418 0.219,0.805 0.504,1.125 0.297,0.406 0.789,0.527 1.211,0.762 0.484,0.203 1,0.281 1.516,0.336 0.25,0.004 0.504,0.015 0.75,-0.028 0.3,-0.07 0.566,-0.238 0.824,-0.402 0.328,-0.219 0.558,-0.519 0.742,-0.855 z m 3.496,-2.204 c -0.004,0.934 0.035,1.872 -0.012,2.809 -0.039,0.688 -0.164,1.371 -0.214,2.059 -0.02,0.73 -0.082,1.453 -0.278,2.16 -0.058,0.301 -0.094,0.609 -0.148,0.91 -0.121,0.613 -0.414,1.172 -0.668,1.738 -0.418,0.86 -0.985,1.703 -1.856,2.156 -1.144,0.594 -2.41,0.993 -3.711,0.922 -0.617,-0.035 -1.23,-0.117 -1.839,-0.203 -0.344,-0.062 -0.649,-0.234 -0.965,-0.359 -0.551,-0.176 -1.121,-0.387 -1.559,-0.774 -0.058,-0.046 -0.121,-0.086 -0.176,-0.136 -0.211,-0.192 -0.144,-0.633 0.18,-0.633 0.039,0 0.074,0.008 0.109,0.023 0.192,-0.586 0.329,-1.234 0.727,-1.711 0.043,-0.035 0.086,-0.058 0.125,-0.07 -0.27,-0.289 0.113,-0.781 0.449,-0.426 0.531,0.106 1,0.379 1.508,0.535 0.758,0.106 1.543,0.165 2.297,0.04 0.809,-0.036 1.328,-0.7 1.699,-1.352 0.387,-0.602 0.531,-1.297 0.598,-2.004 0.023,-0.152 0.043,-0.309 0.066,-0.465 -0.726,0.496 -1.539,0.871 -2.355,1.188 -0.321,0.136 -0.723,0.222 -1.063,0.226 -0.562,0.075 -1.113,0.11 -1.664,-0.066 -0.605,-0.07 -1.148,-0.356 -1.676,-0.649 -0.511,-0.375 -0.992,-0.843 -1.281,-1.414 -0.137,-0.261 -0.312,-0.504 -0.457,-0.765 -0.219,-0.43 -0.293,-0.91 -0.449,-1.364 -0.184,-0.746 -0.113,-1.527 -0.059,-2.285 -0.004,-0.543 0.117,-1.097 0.309,-1.597 0.121,-0.356 0.25,-0.696 0.406,-1.035 0.363,-0.899 0.977,-1.665 1.742,-2.254 0.5,-0.403 1.004,-0.813 1.602,-1.067 1.562,-0.734 2.945,-0.265 4.398,0.453 0.098,0.047 0.188,0.129 0.274,0.211 0,-0.004 0,-0.004 0,-0.008 0.015,-0.085 -0.035,-0.156 -0.035,-0.242 0,-0.164 0.136,-0.301 0.3,-0.301 0.086,0.008 0.153,0.036 0.204,0.079 0.089,-0.153 0.308,-0.274 0.468,-0.329 0.582,-0.203 1.219,-0.136 1.828,-0.175 0.168,0.004 0.262,0.109 0.289,0.234 0.028,-0.023 0.067,-0.043 0.106,-0.055 0.34,-0.062 0.406,0.246 0.402,0.52 0.016,0.211 0.043,0.418 0.082,0.621 0.188,0.687 0.196,1.387 0.18,2.094 -0.023,0.922 0.047,1.84 0.117,2.761 z"
         style="fill:#000000;fill-opacity:0.988406;fill-rule:nonzero;stroke:none"
         id="ag-ltr-2" />
      <path
         d="m 308.25,269.789 c 0.012,-0.383 0.02,-0.769 0.086,-1.144 -0.07,-0.137 -0.117,-0.286 -0.207,-0.407 -0.18,-0.148 -0.359,-0.297 -0.524,-0.468 -0.273,-0.184 -0.562,-0.356 -0.871,-0.477 -0.589,-0.188 -1.328,-0.277 -1.816,0.187 -0.523,0.528 -0.988,1.196 -1.215,1.899 -0.105,0.324 -0.211,0.652 -0.242,0.992 -0.012,0.426 0.027,0.852 0.07,1.274 0.035,0.195 0.114,0.371 0.164,0.527 0.086,0.238 0.145,0.473 0.254,0.699 0.227,0.57 0.672,1.004 1.215,1.27 0.231,0.121 0.449,0.269 0.711,0.312 0.457,0.063 0.961,0.113 1.41,0.012 0.52,-0.059 0.906,-0.414 1.285,-0.742 -0.156,-1.309 -0.394,-2.61 -0.32,-3.934 z m 5.305,5.82 c 0.152,0.344 -0.098,0.754 -0.168,1.098 -0.114,0.371 -0.215,0.746 -0.297,1.121 -0.035,0.16 -0.219,0.25 -0.371,0.211 -0.047,-0.016 -0.086,-0.035 -0.117,-0.066 -0.172,0.195 -0.598,0.086 -0.84,0.086 -0.703,-0.094 -1.379,-0.379 -1.774,-0.997 -0.324,-0.343 -0.851,-0.71 -0.883,-1.21 -0.398,0.496 -0.875,0.925 -1.429,1.261 -0.778,0.512 -1.614,1.106 -2.594,1.016 -0.629,0.012 -1.25,-0.098 -1.816,-0.383 -0.739,-0.285 -1.399,-0.762 -2,-1.273 -0.961,-1.086 -1.52,-2.493 -1.727,-3.922 -0.23,-1.285 0.168,-2.574 0.481,-3.817 0.125,-0.453 0.253,-0.91 0.523,-1.3 0.656,-0.957 1.207,-2.02 2.062,-2.821 0.657,-0.484 1.528,-0.566 2.297,-0.511 0.672,0.035 1.301,0.293 1.875,0.625 0.606,0.23 1.223,0.492 1.629,1.015 0.059,0.078 0.102,0.164 0.149,0.246 0.082,0.051 0.14,0.149 0.14,0.254 0,0.016 0,0.035 -0.004,0.055 0.008,-0.004 0.016,-0.004 0.024,-0.004 -0.024,-0.352 -0.043,-0.699 -0.035,-1.051 -0.172,-0.121 -0.16,-0.414 0.035,-0.512 0.015,-0.074 0.039,-0.148 0.086,-0.203 0.191,-0.238 0.519,-0.097 0.562,0.129 0.305,-0.035 0.606,-0.09 0.91,-0.129 0.454,-0.058 0.907,-0.097 1.364,-0.117 0.062,-0.004 0.125,0.02 0.175,0.059 0.184,0.058 0.305,0.289 0.141,0.48 -0.07,0.801 -0.113,1.602 -0.086,2.403 0.043,0.445 0.082,0.886 0.098,1.332 0.082,1.046 -0.008,2.113 0.285,3.128 0.18,1.012 -0.078,2.11 0.461,3.04 0.094,0.183 0.152,0.386 0.273,0.55 0.055,0.039 0.118,0.059 0.18,0.075 0.129,-0.051 0.297,-0.024 0.391,0.132 z"
         style="fill:#000000;fill-opacity:0.988406;fill-rule:nonzero;stroke:none"
         id="ag-ltr-3" />
      <path
         id="ag-ltr-4"
         style="fill:#000000;fill-opacity:0.988406;fill-rule:nonzero;stroke:none"
         d="m 318.79186,258.60153 c -0.3605,-0.009 -0.72253,0.0804 -1.01953,0.27392 -1.203,-0.152 -1.64343,1.75737 -1.31543,2.65137 0.156,0.469 0.50837,0.86753 0.98437,1.01953 0.329,0.09 0.62894,0.26524 0.96094,0.34424 0.778,0.113 1.46058,-0.48923 1.78858,-1.15723 0.211,-0.429 0.46486,-0.87909 0.48486,-1.37109 -0.02,-0.586 -0.40212,-1.12073 -0.87012,-1.44873 -0.293,-0.197 -0.65317,-0.30314 -1.01367,-0.31201 z m 0.0278,5.5459 c -0.621,-0.003 -1.24589,0.0671 -1.85888,0.16406 -0.149,0.024 -0.26221,0.14536 -0.26221,0.29736 0,0.02 0.004,0.0434 0.0117,0.0674 -0.047,0.047 -0.0736,0.11322 -0.0776,0.19922 -0.028,0.75 0.0438,1.50293 0.0908,2.25293 0.058,0.969 0.0569,1.94204 0.0879,2.91504 0.055,1.082 0.075,2.1641 -0.019,3.2461 -0.07,0.895 -0.007,1.88638 -0.11572,2.79638 -0.055,0.426 -0.1249,0.84756 -0.1919,1.26856 -0.136,0.036 -0.2314,0.18859 -0.2124,0.32959 0.028,0.207 0.23594,0.28549 0.41894,0.25049 0.883,-0.016 1.77384,-0.0129 2.65284,0.0571 0.066,0.008 0.12145,-0.003 0.16845,-0.022 0.054,0.051 0.12855,0.085 0.20655,0.085 0.168,0 0.29229,-0.13629 0.30029,-0.30029 0.058,-0.984 0.0585,-1.9658 0.0395,-2.9458 0.164,-0.172 0.0494,-0.41091 -0.12158,-0.50391 0.085,-0.5 0.13995,-1.00811 0.14795,-1.51611 0.004,-2.586 0.20812,-5.16742 0.22412,-7.75342 -0.008,-0.293 -0.32165,-0.36298 -0.49365,-0.22998 -0.027,-0.016 -0.0544,-0.0315 -0.0894,-0.0425 -0.02,-0.032 -0.0419,-0.0601 -0.0659,-0.0791 0.031,-0.039 0.0539,-0.0894 0.0688,-0.15235 0.028,-0.47199 -0.60067,-0.34078 -0.90967,-0.38378 z" />
      <path
         d="m 335.777,277.102 c 0.043,0.152 -0.05,0.332 -0.211,0.371 -0.199,0.058 -0.402,0.089 -0.609,0.105 -0.059,0.098 -0.184,0.16 -0.301,0.145 -0.09,-0.012 -0.168,-0.063 -0.211,-0.137 -0.297,-0.008 -0.597,-0.031 -0.894,-0.031 -0.481,0.004 -0.961,0.054 -1.442,0.093 -0.168,0.164 -0.468,0.043 -0.511,-0.179 -0.051,-0.215 0.078,-0.344 0.254,-0.395 0.039,-0.742 0.109,-1.457 0.199,-2.199 0.019,-0.937 0.09,-1.871 0.07,-2.809 0.035,-0.89 0.012,-1.785 -0.168,-2.66 -0.062,-0.308 -0.203,-0.59 -0.355,-0.859 -0.086,-0.152 -0.153,-0.336 -0.317,-0.418 -0.742,-0.348 -1.301,-0.297 -2.051,-0.004 -0.402,0.082 -0.699,0.398 -1.027,0.633 -0.129,0.234 -0.191,0.504 -0.258,0.762 -0.133,0.82 -0.199,1.648 -0.254,2.48 -0.039,0.387 -0.093,0.773 -0.062,1.164 0.055,0.524 0.055,1.102 0.082,1.609 0.074,0.739 0.098,1.481 0.121,2.219 0.246,0.207 0.125,0.469 -0.074,0.535 -0.016,0.149 -0.133,0.289 -0.297,0.282 -0.5,-0.039 -1,-0.075 -1.504,-0.039 -0.406,0.019 -0.812,0.011 -1.215,0.078 -0.097,0.007 -0.18,0.074 -0.273,0.074 -0.117,0 -0.235,-0.074 -0.281,-0.184 -0.09,-0.308 0.16,-0.437 0.476,-0.496 -0.031,-0.062 -0.043,-0.133 -0.047,-0.207 -0.16,0 -0.32,-0.121 -0.312,-0.297 0.109,-1.316 -0.035,-2.629 -0.024,-3.941 0.02,-1.297 -0.043,-2.59 -0.074,-3.883 0.031,-1.391 0,-2.789 0.07,-4.18 0.032,-0.164 0.145,-0.242 0.266,-0.25 0.133,-0.093 0.328,-0.121 0.488,-0.125 0.422,-0.035 0.848,-0.058 1.27,-0.074 0.367,-0.012 0.73,-0.015 1.094,-0.066 0.007,0 0.015,0 0.023,0 0,0 0.004,0 0.004,0 0.187,-0.047 0.414,0.117 0.375,0.332 -0.039,0.187 -0.086,0.371 -0.125,0.558 -0.067,0.332 -0.117,0.664 -0.156,0.996 0.257,-0.265 0.543,-0.507 0.8,-0.753 0.336,-0.332 0.77,-0.543 1.184,-0.762 0.363,-0.199 0.75,-0.356 1.152,-0.465 0.703,-0.25 1.41,-0.23 2.121,-0.066 0.469,0.093 0.918,0.257 1.34,0.472 0.356,0.192 0.586,0.531 0.774,0.871 0.418,0.692 0.578,1.496 0.633,2.297 0.105,1.613 -0.02,3.278 -0.157,4.875 -0.082,1.332 -0.117,2.672 -0.258,3.977 -0.015,0.137 -0.035,0.273 -0.054,0.41 0.062,-0.008 0.125,-0.02 0.187,-0.031 0.203,-0.067 0.473,-0.078 0.539,0.172 z"
         style="fill:#000000;fill-opacity:0.988406;fill-rule:nonzero;stroke:none"
         id="ag-ltr-5" />
      <path
         d="m 347.602,265.387 c 0.058,0.117 0.035,0.273 -0.071,0.363 -0.097,0.223 -0.172,0.453 -0.254,0.68 -0.097,0.273 -0.195,0.547 -0.293,0.82 -0.054,0.152 -0.246,0.219 -0.39,0.16 -0.024,-0.012 -0.047,-0.023 -0.067,-0.039 -0.031,0.133 -0.152,0.231 -0.289,0.231 -0.129,-0.004 -0.226,-0.086 -0.347,-0.122 -0.274,-0.132 -0.571,-0.175 -0.868,-0.214 -0.781,-0.137 -1.816,-0.114 -2.203,0.695 -0.078,0.293 -0.222,0.641 -0.058,0.93 0.297,0.343 0.676,0.617 1.086,0.816 0.414,0.297 0.91,0.406 1.351,0.637 0.262,0.234 0.59,0.293 0.903,0.418 0.179,0.082 0.339,0.218 0.484,0.355 0.359,0.387 0.492,0.922 0.73,1.383 0.325,0.867 0.336,1.824 0.239,2.734 -0.117,0.618 -0.469,1.157 -0.848,1.649 -0.32,0.324 -0.691,0.621 -1.086,0.851 -0.269,0.114 -0.562,0.184 -0.848,0.266 -0.617,0.172 -1.25,0.316 -1.898,0.273 -0.824,-0.074 -1.691,-0.062 -2.473,-0.378 -0.363,-0.114 -0.711,-0.262 -1.058,-0.403 -0.274,-0.086 -0.559,-0.117 -0.84,-0.152 -0.231,-0.031 -0.442,-0.266 -0.309,-0.488 0.024,-0.04 0.051,-0.071 0.082,-0.094 -0.004,-0.008 -0.007,-0.016 -0.011,-0.024 -0.047,0.004 -0.102,0 -0.149,-0.019 -0.152,-0.067 -0.215,-0.242 -0.16,-0.395 0.172,-0.453 0.34,-0.906 0.504,-1.359 0.148,-0.297 0.262,-1.078 0.68,-1.035 0.136,0.019 0.246,0.133 0.265,0.265 0.016,0.098 -0.019,0.192 -0.086,0.254 0.032,0.016 0.063,0.039 0.082,0.067 0.004,-0.012 0.012,-0.028 0.02,-0.039 0.078,-0.137 0.273,-0.196 0.41,-0.106 0.262,0.16 0.523,0.336 0.828,0.406 0.434,0.055 0.871,0.043 1.309,0.039 0.386,0.004 0.804,-0.007 1.156,-0.175 0.332,-0.289 0.359,-0.809 0.234,-1.203 -0.07,-0.176 -0.144,-0.356 -0.277,-0.493 -0.156,-0.109 -0.336,-0.187 -0.504,-0.277 -0.215,-0.113 -0.43,-0.234 -0.652,-0.328 -0.188,-0.055 -0.379,-0.074 -0.567,-0.129 -0.797,-0.301 -1.527,-0.824 -2.07,-1.48 -0.336,-0.532 -0.508,-1.153 -0.621,-1.766 -0.063,-0.305 -0.078,-0.617 -0.063,-0.93 0.036,-0.629 0.09,-1.289 0.383,-1.859 0.446,-0.731 1.133,-1.277 1.852,-1.723 0.746,-0.465 1.613,-0.594 2.472,-0.613 0.872,-0.016 1.715,0.203 2.536,0.48 0.55,0.184 1.172,0.317 1.625,0.696 0.066,0.093 0.132,0.191 0.136,0.308 0,0.024 -0.004,0.047 -0.007,0.067 z"
         style="fill:#000000;fill-opacity:0.988406;fill-rule:nonzero;stroke:none"
         id="ag-ltr-6" />
      <path
         d="m 358.855,264.637 c 0.04,0.066 0.055,0.148 0.032,0.226 -0.008,0.039 -0.028,0.071 -0.047,0.098 -0.043,0.777 -0.086,1.527 -0.102,2.312 -0.011,0.391 -0.593,0.395 -0.601,0 0.004,-0.07 0.004,-0.136 0.008,-0.203 -0.043,0 -0.083,0 -0.125,-0.004 -0.61,-0.043 -1.223,-0.054 -1.832,-0.015 -0.376,0.019 -0.747,0.062 -1.118,0.109 -0.008,0.176 -0.05,0.367 -0.05,0.528 -0.02,0.562 -0.122,1.121 -0.118,1.683 0.008,0.75 0.121,1.492 0.082,2.238 -0.007,0.368 -0.004,0.739 0.004,1.106 0.039,0.324 0.176,0.629 0.239,0.949 0.23,1.09 0.39,1.402 1.578,1.398 0.121,-0.074 0.242,-0.171 0.312,-0.3 0.024,-0.055 0.059,-0.098 0.098,-0.133 0.086,-0.438 0.765,-0.313 0.613,0.141 0.234,0.507 0.574,0.992 0.738,1.527 0.067,0.16 0.122,0.355 0.032,0.484 0.101,0.082 0.152,0.227 0.066,0.379 -0.281,0.445 -0.719,0.762 -1.176,1.012 -0.246,0.168 -0.531,0.254 -0.832,0.215 -0.246,-0.008 -0.484,-0.063 -0.722,-0.129 -0.329,-0.035 -0.653,-0.09 -0.961,-0.223 -0.282,-0.074 -0.563,-0.148 -0.789,-0.344 -0.368,-0.183 -0.711,-0.398 -1.012,-0.679 -0.313,-0.348 -0.567,-0.766 -0.727,-1.2 -0.078,-0.226 -0.203,-0.417 -0.285,-0.632 -0.101,-0.371 -0.121,-0.762 -0.246,-1.129 -0.074,-0.446 -0.109,-0.895 -0.195,-1.34 -0.035,-0.32 0.004,-0.641 0.008,-0.961 0.023,-0.93 0.035,-1.863 0.035,-2.793 0.011,-0.309 0.035,-0.617 0.062,-0.926 0.024,-0.211 0.031,-0.437 0.102,-0.64 -0.645,0.015 -1.293,0.035 -1.942,0.062 -0.054,0.055 -0.129,0.09 -0.214,0.09 -0.122,0 -0.235,-0.078 -0.278,-0.188 -0.043,-0.054 -0.07,-0.121 -0.07,-0.191 0,-0.062 0.019,-0.121 0.051,-0.168 0.015,-0.586 0.05,-1.172 0.148,-1.75 0.02,-0.086 0.035,-0.176 0.051,-0.262 -0.059,-0.035 -0.102,-0.089 -0.133,-0.172 -0.039,-0.152 0.051,-0.335 0.211,-0.371 0.027,-0.007 0.055,-0.011 0.086,-0.019 0.016,-0.027 0.031,-0.055 0.051,-0.082 0.121,-0.125 0.316,-0.106 0.429,0.004 0.036,-0.004 0.067,-0.008 0.098,-0.008 0.41,-0.035 0.816,-0.039 1.223,-0.027 -0.024,-0.965 0.027,-1.934 0.125,-2.887 -0.051,-0.027 -0.09,-0.07 -0.121,-0.141 -0.063,-0.144 0.007,-0.336 0.16,-0.394 0.043,-0.012 0.09,-0.024 0.137,-0.032 0.058,-0.035 0.128,-0.054 0.199,-0.043 0.008,0 0.015,0 0.023,0.004 0.703,-0.093 1.438,0.047 2.121,0.172 0.125,0.039 0.309,0.051 0.465,0.098 0.059,-0.074 0.141,-0.129 0.246,-0.125 0.164,0 0.301,0.137 0.301,0.301 -0.094,0.347 -0.121,0.773 -0.145,1.121 -0.035,0.582 -0.062,1.164 -0.082,1.742 0.719,-0.039 1.438,-0.074 2.153,0.023 0.355,0.055 0.707,0.137 1.051,0.235 0.042,-0.36 0.589,-0.352 0.597,0.031 -0.004,0.074 -0.008,0.148 -0.012,0.223 z"
         style="fill:#000000;fill-opacity:0.988406;fill-rule:nonzero;stroke:none"
         id="ag-ltr-7" />
    </g>
    <g
       id="capitalism"
       transform="matrix(0.35277777,0,0,0.35277777,-28.630916,-90.574107)">
      <path
         d="m 185.984,292.723 c 0.125,0.234 -0.089,0.465 -0.156,0.687 -0.101,0.254 -0.199,0.508 -0.293,0.766 -0.121,0.379 -0.23,0.758 -0.328,1.14 -0.039,0.161 -0.215,0.254 -0.367,0.211 -0.113,-0.031 -0.192,-0.125 -0.211,-0.23 -0.125,-0.008 -0.246,-0.098 -0.293,-0.305 -0.18,-0.222 -0.5,-0.367 -0.727,-0.484 -0.437,-0.238 -0.925,-0.348 -1.421,-0.328 -0.665,0.148 -1.387,0.203 -1.95,0.613 -0.797,0.504 -1.246,1.359 -1.605,2.199 -0.149,0.582 -0.285,1.184 -0.324,1.785 0.144,0.606 0.394,1.133 0.656,1.688 0.078,0.144 0.152,0.285 0.258,0.41 0.441,0.453 1.093,0.543 1.683,0.676 0.313,0.086 0.637,0.156 0.961,0.172 0.383,0.054 0.746,-0.094 1.106,-0.207 0.597,-0.161 1.187,-0.364 1.742,-0.641 0.148,-0.207 0.539,-0.148 0.547,0.176 0.066,0.554 0.234,1.094 0.418,1.617 0.261,-0.027 0.476,0.332 0.218,0.539 -0.308,0.25 -0.664,0.422 -1.019,0.59 -0.695,0.379 -1.406,0.723 -2.09,1.117 -0.812,0.535 -1.793,0.57 -2.734,0.504 -0.727,0 -1.375,-0.348 -1.969,-0.73 -0.383,-0.325 -0.766,-0.649 -1.156,-0.965 -0.325,-0.305 -0.508,-0.715 -0.789,-1.055 -0.438,-0.465 -0.672,-1.059 -1.008,-1.59 -0.465,-0.738 -0.453,-1.672 -0.414,-2.516 0.051,-0.605 0.062,-1.218 0.23,-1.808 0.239,-0.918 0.531,-1.828 0.903,-2.703 0.449,-0.836 1.125,-1.578 1.933,-2.082 0.481,-0.285 1.024,-0.438 1.567,-0.563 0.847,-0.078 1.656,-0.453 2.519,-0.363 0.606,0.07 1.219,0.129 1.801,0.328 0.449,0.117 0.894,0.27 1.246,0.586 0.223,0.199 0.523,0.383 0.684,0.648 0.132,-0.058 0.304,-0.027 0.382,0.118 z"
         style="fill:#000000;fill-opacity:0.988406;fill-rule:nonzero;stroke:none"
         id="cap-ltr-1" />
      <path
         d="m 196.387,300.57 c -0.012,-0.008 -0.02,-0.019 -0.028,-0.027 -0.125,-0.113 -0.086,-0.367 -0.105,-0.496 -0.004,-0.035 -0.004,-0.07 -0.008,-0.102 -0.117,-1.308 -0.176,-2.621 -0.137,-3.933 -0.054,-0.055 -0.117,-0.11 -0.164,-0.168 -0.507,-0.547 -1.121,-0.949 -1.765,-1.309 -0.336,-0.164 -0.754,0.063 -1.067,0.141 -1.031,0.297 -1.871,0.883 -1.937,2.039 -0.024,0.711 0.019,1.422 0.008,2.133 -0.028,0.578 0,1.183 0.351,1.672 0.387,0.617 1.125,0.894 1.828,0.941 0.223,0.019 0.446,0.07 0.672,0.062 0.309,-0.031 0.649,-0.164 0.91,-0.253 0.508,-0.172 0.989,-0.418 1.442,-0.7 z m 4.754,2.305 c 0.019,0.039 0.027,0.082 0.027,0.125 0,0.133 -0.074,0.238 -0.137,0.352 -0.113,0.21 -0.219,0.425 -0.308,0.648 -0.118,0.285 -0.211,0.578 -0.297,0.871 -0.043,0.16 -0.215,0.254 -0.367,0.211 -0.032,-0.008 -0.059,-0.02 -0.086,-0.039 -0.141,0.191 -0.504,0.121 -0.731,0.109 -0.168,-0.015 -0.324,-0.074 -0.48,-0.132 -0.184,-0.051 -0.379,-0.067 -0.547,-0.161 -0.242,-0.144 -0.485,-0.289 -0.715,-0.445 -0.309,-0.254 -0.621,-0.598 -0.805,-0.98 -0.652,0.617 -1.41,1.046 -2.332,1.355 -0.699,0.348 -1.457,0.629 -2.25,0.645 -0.425,-0.012 -0.832,-0.141 -1.234,-0.266 -0.309,-0.098 -0.547,-0.32 -0.793,-0.516 -0.34,-0.218 -0.746,-0.336 -1.016,-0.652 -0.211,-0.227 -0.41,-0.477 -0.578,-0.738 -0.297,-0.532 -0.465,-1.129 -0.668,-1.7 -0.191,-0.605 -0.207,-1.242 -0.23,-1.871 -0.055,-0.558 -0.117,-1.183 -0.133,-1.726 -0.078,-0.754 0.07,-1.645 0.172,-2.41 0.262,-0.981 0.726,-1.914 1.39,-2.68 0.364,-0.391 0.86,-0.68 1.289,-0.98 0.911,-0.653 2.043,-1.008 3.145,-0.665 0.609,0.188 1.215,0.477 1.676,0.926 0.117,0.125 0.449,0.449 0.722,0.793 0.008,-0.289 0,-0.586 0.036,-0.875 -0.008,-0.023 -0.012,-0.047 -0.012,-0.074 0,-0.074 0.027,-0.137 0.074,-0.191 0,0 0.004,0 0.004,0 0.02,-0.043 0.051,-0.086 0.094,-0.118 0.082,-0.062 0.172,-0.078 0.254,-0.058 0.629,-0.168 1.785,-0.071 2.129,-0.129 0.144,-0.031 0.257,0.012 0.328,0.086 0.097,-0.098 0.269,-0.137 0.426,-0.031 0.316,0.214 0.152,0.714 0.167,1.039 -0.019,0.386 -0.039,0.773 -0.019,1.164 0.141,1.441 0.059,2.886 0.059,4.332 -0.016,0.965 0.082,1.898 0.25,2.836 0.074,0.34 0.191,0.715 0.343,1.011 0.172,0.082 0.285,0.235 0.399,0.383 0.121,0.071 0.261,0.106 0.386,0.168 0.188,0.004 0.379,0.098 0.375,0.309 0,0.027 0,0.051 -0.007,0.074 z"
         style="fill:#000000;fill-opacity:0.988406;fill-rule:nonzero;stroke:none"
         id="cap-ltr-2" />
      <path
         d="m 211.332,300.977 c 0.461,-0.813 0.703,-1.743 0.617,-2.676 -0.027,-0.625 -0.082,-1.246 -0.332,-1.828 -0.055,-0.176 -0.09,-0.356 -0.172,-0.524 -0.078,-0.144 -0.191,-0.273 -0.257,-0.429 -0.133,-0.34 -0.329,-0.641 -0.645,-0.836 -0.41,-0.442 -0.992,-0.407 -1.535,-0.297 -0.238,0.043 -0.485,0.047 -0.719,0.101 -0.152,0.094 -0.285,0.215 -0.422,0.324 -0.246,0.196 -0.496,0.391 -0.722,0.614 -0.028,1.691 -0.196,3.34 -0.375,5.012 0.281,0.011 0.371,0.48 0.593,0.64 0.223,0.176 0.489,0.293 0.735,0.422 0.004,0 0.004,0.004 0.007,0.004 0.399,0.195 0.821,0.398 1.274,0.348 0.719,-0.063 1.543,-0.219 1.953,-0.875 z m 4.367,-4.512 c 0.16,1.223 0.375,2.457 0.184,3.687 -0.11,0.621 -0.336,1.215 -0.5,1.821 -0.121,0.664 -0.418,1.269 -0.832,1.8 -0.512,0.59 -1.192,0.918 -1.942,1.094 -0.879,0.285 -1.785,0.629 -2.726,0.477 -0.559,-0.078 -1.082,-0.297 -1.61,-0.489 -0.609,-0.183 -1.039,-0.582 -1.347,-1.078 0.012,0.625 0.008,1.246 -0.02,1.868 -0.043,0.843 -0.191,1.679 -0.172,2.523 0.016,0.184 0.047,0.359 0.106,0.535 0.055,0.207 -0.094,0.352 -0.254,0.371 0.137,0.16 0.094,0.457 -0.18,0.5 -0.574,0.074 -1.136,0.145 -1.703,0.153 -0.094,0.121 -0.258,0.125 -0.394,0.074 -0.036,0.164 -0.121,0.293 -0.336,0.277 -0.164,-0.023 -0.278,-0.176 -0.258,-0.34 0.027,-0.234 0.047,-0.468 0.062,-0.703 0.043,-0.648 0.063,-1.301 0.059,-1.949 -0.031,-1.578 -0.043,-3.156 -0.02,-4.734 0.004,-0.7 0.11,-1.391 0.09,-2.09 -0.031,-0.492 -0.129,-1.035 -0.156,-1.52 0,-1.297 0.02,-2.594 -0.094,-3.887 -0.043,-0.695 -0.035,-1.39 -0.015,-2.082 0.004,-0.222 0.019,-0.445 0.019,-0.668 0,-0.097 0.051,-0.187 0.129,-0.242 -0.004,-0.023 -0.004,-0.047 0,-0.07 0.039,-0.277 0.359,-0.277 0.574,-0.328 0.567,-0.113 1.114,-0.149 1.672,-0.176 0.129,0 0.215,0.066 0.262,0.152 0.133,-0.156 0.43,-0.191 0.539,0.059 0.082,0.238 -0.008,0.492 -0.027,0.734 -0.008,0.055 -0.016,0.114 -0.024,0.168 0.438,-0.414 0.957,-0.718 1.52,-0.933 0.379,-0.199 0.785,-0.309 1.203,-0.379 0.277,-0.07 0.562,-0.086 0.844,-0.059 0.808,0.008 1.675,0.071 2.312,0.621 0.348,0.207 0.723,0.364 1.024,0.645 0.246,0.215 0.55,0.387 0.718,0.676 0.621,1.082 1.098,2.257 1.293,3.492 z"
         style="fill:#000000;fill-opacity:0.988406;fill-rule:nonzero;stroke:none"
         id="cap-ltr-3" />
      <path
         id="cap-ltr-4"
         style="fill:#000000;fill-opacity:0.988406;fill-rule:nonzero;stroke:none"
         d="m 221.21276,285.76413 c -0.5337,0.01 -1.10218,0.22898 -1.55274,0.45117 -0.101,-0.188 -0.35546,-0.21467 -0.54346,-0.15967 -0.67899,0.265 -0.91379,1.35816 -0.86279,2.01416 0.09,0.625 0.49293,1.21527 1.02393,1.55127 1.102,0.574 2.71865,0.0863 3.22265,-1.07373 0.289,-0.738 0.32422,-1.67603 -0.17578,-2.33203 -0.30231,-0.33994 -0.69672,-0.45895 -1.11181,-0.45117 z m -2.10059,5.58252 c -0.15837,0.01 -0.31379,0.12824 -0.30029,0.36474 0.012,0.766 -0.14771,1.51916 -0.17871,2.28516 -0.082,1.277 0.008,2.55503 0.019,3.83203 -0.011,1.981 -0.1139,3.96041 -0.1919,5.94141 -0.004,0.164 0.14176,0.30029 0.30176,0.30029 0.027,0 0.0492,-0.005 0.0732,-0.009 v 0.0322 c 0,0.074 0.0277,0.14421 0.0747,0.19921 -0.039,0.023 -0.0701,0.0544 -0.0981,0.0894 -0.308,-0.02 -0.56195,0.50064 -0.14795,0.66064 0.34,0.094 0.70708,0.0426 1.05908,0.0586 0.492,-0.008 0.92229,0.0317 1.42529,0.0747 0.293,-0.02 0.8599,0.13523 0.9419,-0.23877 0.074,-0.055 0.12811,-0.14117 0.12011,-0.24317 -0.027,-0.476 -0.03,-0.95701 -0.022,-1.43701 0.011,-1.301 0.10106,-2.60135 0.16406,-3.90234 0.031,-0.687 0.0502,-1.3755 0.0542,-2.0625 0.016,-1.281 -0.12558,-2.55836 -0.12158,-3.83936 -0.015,-0.539 0.055,-1.08658 0,-1.62158 -0.07,-0.453 -0.55497,-0.40499 -0.66797,-0.16699 -0.73,-0.086 -1.45301,-0.0952 -2.18701,-0.0322 0.002,-0.1975 -0.15949,-0.29539 -0.31787,-0.28564 z" />
      <path
         d="m 234.043,291.27 c 0.312,0.05 0.273,0.386 0.203,0.617 -0.016,0.054 -0.023,0.109 -0.035,0.164 0,0.004 -0.004,0.008 -0.004,0.011 -0.102,0.532 -0.18,1.067 -0.25,1.606 0.137,0.129 0.117,0.379 -0.055,0.48 -0.004,0.024 -0.004,0.051 -0.007,0.079 -0.02,0.164 -0.18,0.277 -0.34,0.257 -0.141,-0.019 -0.246,-0.14 -0.254,-0.277 -0.848,0.039 -1.692,0.074 -2.535,0.023 -0.141,-0.015 -0.301,-0.019 -0.454,-0.042 0,0.101 -0.023,0.21 -0.046,0.308 -0.071,0.465 -0.059,0.938 -0.078,1.406 -0.04,0.59 -0.02,1.176 0.066,1.762 0.051,0.731 0.066,1.496 0.098,2.223 0.031,0.429 0.144,0.847 0.207,1.273 0.117,0.52 0.117,0.602 0.636,0.793 0.266,0.09 0.559,0.059 0.805,-0.078 0.141,-0.078 0.293,-0.195 0.438,-0.207 0.054,-0.078 0.152,-0.129 0.25,-0.129 0.167,0 0.289,0.137 0.296,0.301 0.012,0.465 0.145,0.918 0.325,1.348 0.011,-0.016 0.019,-0.028 0.027,-0.043 0.199,-0.336 0.707,-0.043 0.516,0.304 -0.247,0.449 -0.575,0.844 -0.922,1.223 -0.168,0.183 -0.36,0.351 -0.582,0.465 -0.2,0.109 -0.493,0.187 -0.7,0.191 -0.378,0.027 -0.757,0.129 -1.136,0.074 -0.371,-0.082 -0.727,-0.207 -1.098,-0.281 -0.453,-0.144 -0.785,-0.469 -1.152,-0.746 -0.274,-0.23 -0.41,-0.57 -0.586,-0.875 -0.219,-0.355 -0.352,-0.738 -0.442,-1.145 -0.226,-0.75 -0.207,-1.531 -0.285,-2.304 -0.031,-0.461 -0.015,-0.922 -0.113,-1.375 -0.156,-0.571 -0.164,-1.16 -0.148,-1.75 0.003,-0.598 0.074,-1.192 0.117,-1.785 0.023,-0.141 0,-0.266 -0.028,-0.403 -0.004,-0.133 0.086,-0.234 0.2,-0.277 -0.411,0 -0.821,0.004 -1.231,0 -0.078,-0.008 -0.16,-0.012 -0.246,-0.012 -0.098,0.059 -0.23,0.059 -0.328,-0.008 -0.137,-0.011 -0.27,-0.039 -0.387,-0.113 -0.254,-0.203 -0.047,-0.57 0.211,-0.57 -0.066,-0.485 -0.164,-1.153 -0.129,-1.625 -0.086,-0.137 -0.066,-0.34 0.106,-0.426 0.027,-0.047 0.062,-0.082 0.101,-0.105 0.11,-0.067 0.227,-0.051 0.317,0.011 0.527,-0.086 1.062,-0.09 1.601,-0.058 0,-0.598 0.008,-1.192 0.02,-1.789 0.031,-0.391 -0.012,-0.805 0.035,-1.2 -0.047,-0.109 -0.012,-0.211 0.058,-0.304 0.012,-0.039 0.028,-0.082 0.04,-0.121 0.085,-0.161 0.214,-0.211 0.335,-0.196 0.34,-0.211 0.77,-0.226 1.149,-0.121 0.383,0.098 0.769,0.184 1.16,0.246 0.039,-0.058 0.086,-0.101 0.145,-0.132 0.25,-0.114 0.488,0.164 0.406,0.386 0.031,0.121 -0.012,0.258 -0.113,0.332 -0.032,0.227 -0.039,0.453 -0.059,0.684 -0.027,0.625 -0.043,1.25 -0.012,1.871 0.172,-0.02 0.34,-0.027 0.492,-0.039 0.414,0.012 2.618,-0.25 3.239,0.121 0.047,-0.023 0.101,-0.031 0.156,-0.023 z"
         style="fill:#000000;fill-opacity:0.988406;fill-rule:nonzero;stroke:none"
         id="cap-ltr-5" />
      <path
         d="m 244.066,297.129 c 0.032,-0.281 0.02,-0.918 0.149,-1.375 -0.188,-0.254 -0.414,-0.481 -0.668,-0.645 -0.215,-0.144 -0.399,-0.332 -0.629,-0.453 -0.293,-0.133 -0.606,-0.23 -0.926,-0.258 -0.754,-0.05 -1.57,0.219 -1.965,0.903 -0.668,0.937 -0.82,1.929 -0.777,3.054 0.148,0.887 0.004,2.012 0.816,2.606 1.258,0.793 2.254,0.699 3.477,-0.09 0.184,-0.152 0.367,-0.305 0.551,-0.457 -0.125,-1.086 -0.051,-2.191 -0.028,-3.285 z m 5.118,5.5 c 0.086,0.219 -0.079,0.379 -0.309,0.473 -0.008,0.226 -0.098,0.46 -0.133,0.679 -0.058,0.258 -0.113,0.512 -0.168,0.766 -0.012,0.058 -0.047,0.109 -0.09,0.148 0.176,0.141 0.153,0.489 -0.144,0.532 -0.184,0.023 -0.379,0.035 -0.567,0.015 -0.457,-0.074 -0.921,-0.133 -1.355,-0.285 -0.418,-0.223 -0.863,-0.445 -1.184,-0.801 -0.214,-0.258 -0.445,-0.527 -0.586,-0.832 -0.046,0.043 -0.089,0.086 -0.136,0.129 -0.407,0.34 -0.879,0.609 -1.305,0.918 -0.516,0.395 -1.152,0.535 -1.777,0.652 -0.625,0.157 -1.274,0.207 -1.914,0.133 -0.403,-0.015 -0.743,-0.222 -1.078,-0.429 -0.211,-0.098 -0.422,-0.192 -0.606,-0.34 -0.332,-0.317 -0.605,-0.692 -0.934,-1.012 -0.289,-0.309 -0.367,-0.734 -0.543,-1.102 -0.175,-0.343 -0.425,-0.66 -0.496,-1.046 -0.066,-0.602 -0.203,-1.188 -0.336,-1.778 -0.058,-0.633 0.004,-1.277 0.004,-1.914 0.051,-0.625 0.223,-1.23 0.301,-1.851 0.07,-0.645 0.332,-1.239 0.625,-1.813 0.488,-0.992 1.305,-1.894 2.367,-2.266 0.746,-0.246 1.524,-0.492 2.317,-0.445 0.824,0.074 1.484,0.59 2.097,1.106 0.289,0.214 0.586,0.425 0.84,0.683 0,-0.379 -0.008,-0.758 0.008,-1.133 0.039,-0.355 0.406,-0.375 0.555,-0.16 0.011,0.004 0.019,0.012 0.031,0.016 0.867,0.019 1.734,-0.086 2.605,-0.102 0.286,0.004 0.364,0.317 0.231,0.489 0.094,0.289 -0.035,0.773 -0.008,1.019 -0.012,0.805 -0.023,1.613 -0.051,2.422 0.082,1.426 0.02,2.82 0.082,4.238 0.086,0.715 0.2,1.43 0.274,2.145 0.035,0.187 0.16,0.328 0.273,0.472 0.086,0.086 0.137,0.239 0.27,0.258 0.293,0 0.64,-0.379 0.84,0.016 z"
         style="fill:#000000;fill-opacity:0.988406;fill-rule:nonzero;stroke:none"
         id="cap-ltr-6" />
      <path
         d="m 257.867,303.191 c 0.149,0.039 0.262,0.215 0.207,0.368 -0.082,0.238 -0.168,0.468 -0.277,0.695 -0.344,0.746 -1.176,1.125 -1.969,1.144 -0.344,0.032 -0.707,0.004 -1.035,0 -0.18,0.016 -0.363,0.047 -0.547,0.04 -0.363,-0.024 -0.723,-0.122 -1.07,-0.231 -0.321,-0.16 -0.711,-0.371 -0.949,-0.641 -0.207,-0.304 -0.399,-0.625 -0.602,-0.933 -0.219,-0.399 -0.309,-0.852 -0.387,-1.293 -0.09,-0.567 -0.031,-1.141 -0.058,-1.711 -0.133,-0.797 -0.071,-1.602 -0.098,-2.402 -0.078,-0.614 -0.023,-1.231 -0.047,-1.848 -0.031,-0.563 -0.23,-1.102 -0.242,-1.664 0.004,-0.93 0.047,-1.863 -0.004,-2.793 -0.098,-0.715 -0.121,-1.43 -0.031,-2.145 0.027,-0.558 0.07,-1.113 0.121,-1.668 0.016,-0.211 0.016,-0.429 0.043,-0.64 -0.043,-0.114 -0.012,-0.246 0.07,-0.332 0.004,-0.008 0.008,-0.016 0.012,-0.028 0.066,-0.234 0.332,-0.312 0.492,-0.187 0.902,-0.305 1.859,-0.383 2.801,-0.508 0.391,-0.039 0.473,0.535 0.082,0.598 -0.027,0.004 -0.055,0.004 -0.082,0.008 0.004,0.007 0.004,0.015 0.004,0.019 0.387,0.051 0.269,0.555 0.261,0.84 -0.035,0.941 -0.003,1.887 -0.062,2.832 0.008,0.75 -0.082,1.461 -0.074,2.203 0.012,0.633 0.019,1.266 0.019,1.898 0.008,0.489 0,1.047 -0.047,1.524 -0.062,1.34 -0.05,2.699 0.153,4.031 0.062,0.379 0.094,0.766 0.199,1.137 0.266,0.637 0.766,0.781 1.305,0.324 0.133,-0.094 0.32,-0.074 0.422,0.055 0.007,0.012 0.011,0.019 0.015,0.027 0.016,0 0.028,-0.004 0.043,-0.004 0.012,-0.344 0.535,-0.398 0.594,-0.027 0.078,0.488 0.25,0.953 0.445,1.402 0.071,-0.082 0.16,-0.121 0.293,-0.09 z"
         style="fill:#000000;fill-opacity:0.988406;fill-rule:nonzero;stroke:none"
         id="cap-ltr-7" />
      <path
         id="cap-ltr-8"
         style="fill:#000000;fill-opacity:0.988406;fill-rule:nonzero;stroke:none"
         d="m 261.26159,286.01461 c -0.23981,-0.004 -0.53988,0.15764 -0.65625,0.33399 -0.582,0.808 -0.6638,2.1307 -0.1128,2.9707 0.344,0.434 0.94778,0.4927 1.46778,0.5127 0.80499,0.016 1.64154,-0.46543 1.97753,-1.21143 0.25,-0.566 0.29216,-1.24934 0.0352,-1.81934 -0.246,-0.52399 -0.84821,-0.711 -1.38721,-0.75 -0.289,0 -0.81579,-0.1723 -0.86279,0.2417 -0.043,-0.008 -0.0863,-0.004 -0.1333,0.0117 -0.0284,-0.20637 -0.16405,-0.28697 -0.32812,-0.29004 z m -0.19776,5.21338 c -0.1418,0.003 -0.2769,0.044 -0.3999,0.14649 -0.129,0.141 -0.11648,0.31699 -0.0425,0.43799 -0.008,0.02 -0.0164,0.0419 -0.0234,0.0659 -0.114,0.848 7.2e-4,1.71102 0.0117,2.56202 0.043,0.76999 0.21094,1.52827 0.21094,2.30126 -0.004,0.668 -0.15607,1.32859 -0.16407,1.99659 -0.011,0.508 0.0152,1.01104 -0.009,1.51904 -0.199,1.547 -0.0818,3.12922 -0.13184,4.69922 0.004,0.227 0.19928,0.32504 0.36328,0.29004 0.035,0.024 0.0771,0.0385 0.12012,0.0425 0.352,0.016 0.69536,-0.0902 1.04736,-0.0982 0.652,-0.054 1.31564,0.0595 1.95264,-0.12451 0.16,-0.039 0.25394,-0.21467 0.21094,-0.36767 -0.012,-0.039 -0.0265,-0.0697 -0.0425,-0.0937 0.023,-0.148 7.8e-4,-0.32396 0.009,-0.45996 -0.016,-1.258 0.0387,-2.51651 0.0937,-3.77051 0.066,-1.238 0.0577,-2.4875 0.0967,-3.72949 -0.004,-0.657 -0.0666,-1.30836 -0.12158,-1.96436 -0.066,-1 -0.0498,-2.00919 -0.0498,-3.01318 0.047,-0.254 -0.28547,-0.44086 -0.48047,-0.27686 -0.145,0.113 -0.12958,0.29343 -0.12158,0.46143 -0.039,-0.079 -0.11405,-0.14074 -0.22705,-0.15674 -0.328,-0.023 -0.65491,-0.0578 -0.98291,-0.11279 -0.40725,-0.0353 -0.89444,-0.36495 -1.31983,-0.3545 z" />
      <path
         d="m 276.223,291.934 c 0.293,0.187 0.82,0.254 0.8,0.695 -0.019,0.156 -0.144,0.246 -0.277,0.258 -0.016,0.011 -0.031,0.023 -0.055,0.035 -0.16,0.558 -0.375,1.101 -0.586,1.64 -0.007,0.032 -0.019,0.059 -0.031,0.086 -0.035,0.09 -0.07,0.18 -0.105,0.266 -0.059,0.152 -0.246,0.223 -0.391,0.16 -0.152,-0.062 -0.219,-0.23 -0.164,-0.379 -0.023,-0.007 -0.047,-0.015 -0.07,-0.023 -0.672,-0.203 -1.383,-0.262 -2.067,-0.125 -0.48,0.047 -0.82,0.16 -0.965,0.664 -0.07,0.266 0.086,0.543 0.208,0.769 0.218,0.313 0.562,0.481 0.863,0.692 0.328,0.269 0.609,0.371 0.926,0.621 0.293,0.156 0.613,0.266 0.902,0.434 0.246,0.132 0.527,0.203 0.773,0.332 0.145,0.082 0.258,0.199 0.348,0.336 0.266,0.359 0.484,0.753 0.598,1.187 0.258,1.008 0.23,2.031 -0.153,2.988 -0.855,1.793 -2.886,2.793 -4.828,2.641 -0.703,-0.082 -1.398,-0.184 -2.097,-0.27 -0.403,-0.093 -0.817,-0.16 -1.211,-0.273 -0.297,-0.129 -0.524,-0.383 -0.84,-0.477 -0.215,-0.039 -0.418,-0.156 -0.36,-0.41 0.004,0 0.004,-0.004 0.004,-0.008 -0.316,-0.117 -0.152,-0.503 -0.074,-0.738 0.152,-0.461 0.359,-0.898 0.578,-1.328 0.153,-0.25 0.239,-0.594 0.5,-0.75 0.137,-0.066 0.293,-0.008 0.379,0.105 0.043,0.008 0.09,0.028 0.137,0.063 0.601,0.492 1.215,0.656 1.984,0.57 0.621,-0.027 1.352,0.02 1.789,-0.507 0.348,-0.403 0.032,-0.922 -0.136,-1.333 -0.118,-0.242 -0.332,-0.421 -0.551,-0.566 -0.203,-0.09 -0.43,-0.109 -0.637,-0.184 -0.187,-0.062 -0.363,-0.156 -0.551,-0.23 -0.234,-0.074 -0.484,-0.125 -0.691,-0.273 -0.195,-0.176 -0.461,-0.235 -0.656,-0.414 -0.153,-0.145 -0.293,-0.372 -0.45,-0.504 -0.293,-0.223 -0.488,-0.543 -0.687,-0.848 -0.199,-0.34 -0.199,-0.754 -0.277,-1.137 -0.032,-0.285 0.054,-0.566 0.089,-0.851 0.032,-0.469 0.129,-0.946 0.305,-1.379 0.301,-1.125 1.305,-1.899 2.43,-2.067 1.199,-0.144 2.422,-0.476 3.621,-0.156 0.601,0.109 1.172,0.332 1.676,0.688 z"
         style="fill:#000000;fill-opacity:0.988406;fill-rule:nonzero;stroke:none"
         id="cap-ltr-9" />
      <path
         d="m 298.961,297.473 c 0.098,1.129 0,2.254 -0.113,3.375 -0.043,0.82 -0.02,1.644 -0.082,2.464 -0.016,0.309 -0.032,0.618 -0.055,0.926 0,0.039 -0.012,0.074 -0.031,0.106 0.008,0.023 0.011,0.047 0.011,0.07 0,0.098 -0.046,0.184 -0.121,0.238 0.039,0.223 -0.097,0.504 -0.351,0.465 -0.031,-0.004 -0.063,-0.015 -0.09,-0.027 -0.035,0.105 -0.125,0.191 -0.242,0.203 -0.668,0.07 -1.348,0.227 -2.012,0.086 -0.082,-0.016 -0.16,-0.047 -0.23,-0.09 -0.145,0.207 -0.54,0.156 -0.543,-0.172 0.011,-0.969 0.07,-1.937 0.101,-2.906 -0.035,-0.965 -0.062,-1.93 -0.098,-2.891 -0.14,-1.269 0.149,-2.718 -0.601,-3.832 -0.172,-0.218 -0.41,-0.332 -0.692,-0.328 -0.136,-0.004 -0.273,-0.027 -0.41,-0.004 -0.265,0.086 -0.547,0.117 -0.785,0.25 -0.504,0.395 -0.972,0.864 -1.258,1.446 -0.195,0.406 -0.382,0.828 -0.418,1.285 0.016,0.547 0.043,1.051 0.063,1.593 -0.024,1.586 0.012,3.176 -0.035,4.766 0.176,0.277 -0.18,0.582 -0.442,0.418 -0.054,0.078 -0.148,0.133 -0.277,0.117 -0.613,-0.043 -1.219,-0.136 -1.824,-0.207 -0.074,-0.015 -0.156,-0.004 -0.238,0.012 -0.047,0.031 -0.106,0.051 -0.168,0.051 -0.024,0 -0.047,-0.004 -0.071,-0.008 -0.14,0.016 -0.261,-0.008 -0.336,-0.172 -0.054,-0.129 -0.008,-0.293 0.114,-0.367 0.015,-0.582 0.007,-1.164 0.019,-1.742 0.016,-1.039 0.031,-2.098 -0.035,-3.129 -0.07,-1.016 -0.094,-2.055 -0.371,-3.039 -0.192,-0.543 -0.41,-1.246 -1.047,-1.391 -1.305,-0.098 -2.309,1.098 -2.555,2.285 -0.136,0.68 -0.113,1.379 -0.261,2.059 -0.125,1.172 -0.153,2.347 -0.168,3.527 0.015,0.625 0.007,1.246 -0.004,1.871 0.004,0.028 0.004,0.055 0.007,0.082 0.083,0.004 0.165,0.008 0.247,0.02 0.418,0.074 0.289,0.676 -0.129,0.59 -0.93,-0.078 -1.852,0.152 -2.778,0.05 -0.234,-0.019 -0.582,-0.05 -0.586,-0.355 0,-0.074 0.028,-0.141 0.071,-0.191 -0.032,-0.047 -0.051,-0.106 -0.047,-0.165 0.027,-0.457 0.07,-0.91 0.062,-1.371 0,-0.046 0,-0.093 0,-0.144 -0.027,-0.031 -0.047,-0.067 -0.058,-0.113 -0.239,-0.93 -0.168,-1.84 -0.199,-2.778 0,-1.375 -0.024,-2.82 0.058,-4.168 0.067,-0.871 0.106,-1.734 0.109,-2.605 0.016,-0.563 -0.011,-1.149 0.153,-1.692 -0.004,-0.148 0.121,-0.293 0.269,-0.367 0.602,-0.332 1.317,-0.074 1.965,-0.07 0.223,0.043 0.598,-0.035 0.781,0.105 0.004,-0.015 0.004,-0.031 0.004,-0.047 0,-0.164 0.133,-0.296 0.297,-0.296 0.164,0 0.301,0.132 0.301,0.296 0,0.434 0,0.868 0.012,1.301 0.039,-0.066 0.082,-0.129 0.121,-0.195 0.215,-0.465 0.68,-0.711 1.082,-1 0.695,-0.41 1.422,-0.703 2.23,-0.746 0.317,-0.035 0.61,0.09 0.922,0.105 0.278,0.035 0.504,0.2 0.762,0.289 0.269,0.079 0.543,0.172 0.734,0.383 0.137,0.141 0.246,0.305 0.375,0.449 0.133,0.141 0.27,0.274 0.403,0.411 0.14,0.136 0.254,0.289 0.351,0.449 0.715,-0.86 1.766,-1.418 2.844,-1.653 0.34,-0.113 0.691,-0.171 1.051,-0.156 0.547,0.098 1.125,0.121 1.633,0.371 0.761,0.45 1.343,1.168 1.66,1.992 0.633,1.196 0.871,2.586 0.949,3.911 z"
         style="fill:#000000;fill-opacity:0.988406;fill-rule:nonzero;stroke:none"
         id="cap-ltr-10" />
    </g>
  </g>
</svg>
